<svg width="1200" height="200" viewBox="0 0 1200 200" xmlns="http://www.w3.org/2000/svg">
  <defs>
    <linearGradient id="skyGradient" x1="0%" y1="0%" x2="0%" y2="100%">
      <stop offset="0%" style="stop-color:#020617;stop-opacity:1" />
      <stop offset="100%" style="stop-color:#0f172a;stop-opacity:1" />
    </linearGradient>
    <radialGradient id="starGlow">
      <stop offset="0%" stop-color="white" stop-opacity="1" />
      <stop offset="100%" stop-color="white" stop-opacity="0" />
    </radialGradient>
  </defs>
  <rect width="100%" height="100%" fill="url(#skyGradient)" />
  
  <!-- Faint nebula-like glow -->
  <ellipse cx="600" cy="100" rx="400" ry="80" fill="#38bdf8" fill-opacity="0.05" filter="blur(40px)" />
  
  <!-- Randomly placed stars -->
  <circle cx="50" cy="40" r="1" fill="white" opacity="0.7" />
  <circle cx="120" cy="150" r="1.5" fill="white" opacity="0.9" />
  <circle cx="200" cy="30" r="0.8" fill="white" opacity="0.5" />
  <circle cx="280" cy="120" r="1.2" fill="white" opacity="0.8" />
  <circle cx="350" cy="60" r="1" fill="white" opacity="0.6" />
  <circle cx="420" cy="180" r="0.5" fill="white" opacity="0.4" />
  <circle cx="500" cy="20" r="1.1" fill="white" opacity="0.7" />
  <circle cx="580" cy="140" r="1.3" fill="white" opacity="0.9" />
  <circle cx="650" cy="70" r="0.9" fill="white" opacity="0.5" />
  <circle cx="720" cy="160" r="1.4" fill="white" opacity="0.8" />
  <circle cx="800" cy="40" r="0.7" fill="white" opacity="0.6" />
  <circle cx="880" cy="110" r="1.2" fill="white" opacity="0.7" />
  <circle cx="950" cy="10" r="1" fill="white" opacity="0.5" />
  <circle cx="1020" cy="130" r="1.5" fill="white" opacity="0.9" />
  <circle cx="1100" cy="50" r="0.8" fill="white" opacity="0.6" />
  <circle cx="1150" cy="170" r="1.1" fill="white" opacity="0.8" />
  <circle cx="30" cy="180" r="0.6" fill="white" opacity="0.5" />
  <circle cx="150" cy="20" r="1.2" fill="white" opacity="0.7" />
  <circle cx="250" cy="90" r="1" fill="white" opacity="0.8" />
  <circle cx="380" cy="150" r="0.9" fill="white" opacity="0.6" />
  <circle cx="450" cy="40" r="1.4" fill="white" opacity="0.9" />
  <circle cx="530" cy="110" r="0.7" fill="white" opacity="0.5" />
  <circle cx="610" cy="30" r="1.1" fill="white" opacity="0.7" />
  <circle cx="690" cy="130" r="1.3" fill="white" opacity="0.8" />
  <circle cx="780" cy="60" r="1" fill="white" opacity="0.6" />
  <circle cx="850" cy="180" r="0.8" fill="white" opacity="0.4" />
  <circle cx="920" cy="20" r="1.5" fill="white" opacity="0.9" />
  <circle cx="990" cy="140" r="1.2" fill="white" opacity="0.7" />
  <circle cx="1070" cy="70" r="0.9" fill="white" opacity="0.5" />
  <circle cx="1120" cy="160" r="1.1" fill="white" opacity="0.8" />
</svg>